<svg width="52" height="33" viewBox="0 0 52 33" fill="none" xmlns="http://www.w3.org/2000/svg">
<path fill-rule="evenodd" clip-rule="evenodd" d="M49.75 22.2762V25.0227L49.7496 25.0228C50.3199 25.1388 50.7496 25.6394 50.7496 26.2347V27.2223C50.7496 27.8215 50.3199 28.3201 49.7496 28.4361V28.4612H43.1851C42.8218 30.7013 40.8628 32.4196 38.4995 32.4196C36.1362 32.4196 34.1773 30.7013 33.8159 28.4612H16.4349C16.0716 30.7013 14.1127 32.4196 11.7494 32.4196C9.38609 32.4196 7.42517 30.6994 7.06384 28.4612H3.24939L2.50134 28.4632C1.80994 28.4632 1.24939 27.9065 1.24939 27.2243V26.2366C1.24939 25.5524 1.81189 24.9977 2.50134 24.9977H3.24939V13.8669C3.24939 10.4555 6.05414 7.67998 9.50139 7.67998L15.2709 7.67611V5.70274C9.18539 5.12873 4.02894 4.05602 2.46839 2.51173C2.23597 2.28368 2.18128 1.93189 2.33362 1.64391C2.48597 1.35786 2.8063 1.19937 3.13052 1.25736C8.10702 2.13869 15.8455 2.25659 22.7555 2.25659C24.2243 2.25659 25.6677 2.25272 27.0544 2.24692C27.407 2.24586 27.7559 2.24466 28.1008 2.24347L28.1009 2.24347L28.101 2.24347L28.1011 2.24347L28.1014 2.24347L28.1017 2.24347L28.1018 2.24347C29.0154 2.24031 29.9006 2.23726 30.7497 2.23726L37.1872 2.23919H37.1891C41.5466 2.23919 44.2302 2.2102 47.7106 2.04205C48.0544 2.02849 48.3727 2.24884 48.4684 2.57934C48.5641 2.90986 48.4176 3.26357 48.1149 3.43172C47.613 3.71004 46.988 3.96902 46.2477 4.20869V5.71048C46.2477 6.37924 45.8883 6.95712 45.2848 7.25864C45.029 7.3862 44.7594 7.44998 44.4919 7.44998C44.1286 7.44998 43.7673 7.33401 43.4548 7.10401L41.0349 5.32781C37.9529 5.77236 34.1366 6.05455 29.7499 6.15505V7.68193L34.9979 7.68C38.3419 7.68 41.4258 8.78749 43.9024 10.6487L44.1074 10.8072C46.1797 12.4209 47.8047 14.5722 48.7676 17.048L48.7735 17.0596L48.7871 17.0925C48.8007 17.1308 48.8154 17.1679 48.83 17.2048L48.8301 17.205L48.8301 17.2051L48.8302 17.2052L48.8302 17.2053L48.8303 17.2054C48.8429 17.2373 48.8555 17.2691 48.8672 17.3012L49.166 18.0686H49.1231C49.5293 19.4022 49.75 20.815 49.75 22.2762ZM36.0002 16.586H46.9317H46.9319C46.0921 14.8717 44.8811 13.3505 43.3792 12.1329H36.0002C35.8654 12.1329 35.7502 12.2469 35.7502 12.3803V16.3386C35.7502 16.472 35.8654 16.586 36.0002 16.586ZM44.75 5.71049C44.75 5.81293 44.7051 5.88637 44.6113 5.93276C44.5176 5.97915 44.4336 5.97142 44.3496 5.90957L43.0918 4.98762C43.6817 4.87552 44.2344 4.75569 44.75 4.63006L44.75 5.71049ZM26.0908 3.73613L26.0906 3.73613C25.0042 3.73947 23.8892 3.7429 22.758 3.7429L22.7585 3.74286C18.319 3.74286 13.5376 3.69261 9.33647 3.42395C13.3715 4.17777 19.1745 4.7112 26.0005 4.7112C32.2735 4.7112 37.7601 4.34788 41.7425 3.70811C40.385 3.72357 38.9182 3.72937 37.1917 3.72937H37.1897L30.7502 3.72357C29.5823 3.72357 28.3459 3.72744 27.0608 3.73324L26.0908 3.73613ZM16.7715 5.83612C19.7813 6.07385 22.957 6.19561 26 6.19561C26.7637 6.19561 27.5137 6.18982 28.25 6.18015V7.67997H16.7715V5.83612ZM8.50002 27.7193C8.50002 29.4935 9.95707 30.9354 11.75 30.9354C13.543 30.9354 15 29.4935 15 27.7193C15 25.945 13.543 24.5031 11.75 24.5031C9.95707 24.5031 8.50002 25.945 8.50002 27.7193ZM38.5 30.9354C36.7071 30.9354 35.25 29.4935 35.25 27.7193C35.25 25.945 36.7071 24.5031 38.5 24.5031C40.293 24.5031 41.75 25.945 41.75 27.7193C41.75 29.4935 40.293 30.9354 38.5 30.9354ZM38.5 23.0187C40.8633 23.0187 42.8242 24.737 43.1856 26.9771H49.25V26.4823H44.75V24.9979H48.25V22.2785C48.25 20.8057 48 19.3929 47.5469 18.0708H35.9999C35.035 18.0708 34.2499 17.2939 34.2499 16.3391V12.3807C34.2499 11.4259 35.035 10.649 35.9999 10.649H41.1114C39.2811 9.70381 37.201 9.16458 34.9979 9.16458H9.50187C6.88077 9.16458 4.74992 11.2752 4.74992 13.867V16.5865H12.2849V18.0708H4.74992V24.9979H5.74992V26.4823H2.74992V26.9771H7.06437C7.42767 24.737 9.38662 23.0187 11.7499 23.0187C14.1132 23.0187 16.0741 24.737 16.4355 26.9771H33.8145C34.1778 24.737 36.1367 23.0187 38.5 23.0187Z" fill="white"/>
<path d="M49.75 25.0227L49.8336 25.3108L50.05 25.248V25.0227H49.75ZM49.7496 25.0228L49.666 24.7347L49.6898 25.3168L49.7496 25.0228ZM49.7496 28.4361L49.6898 28.1421L49.4496 28.191V28.4361H49.7496ZM49.7496 28.4612V28.7612H50.0496V28.4612H49.7496ZM43.1851 28.4612V28.1612H42.9298L42.889 28.4132L43.1851 28.4612ZM33.8159 28.4612L34.1121 28.4135L34.0714 28.1612H33.8159V28.4612ZM16.4349 28.4612V28.1612H16.1797L16.1388 28.4132L16.4349 28.4612ZM7.06384 28.4612L7.36 28.4134L7.31929 28.1612H7.06384V28.4612ZM3.24939 28.4612V28.1612L3.24861 28.1612L3.24939 28.4612ZM2.50134 28.4632V28.7632L2.50211 28.7632L2.50134 28.4632ZM3.24939 24.9977V25.2977H3.54939V24.9977H3.24939ZM9.50139 7.67998V7.97998L9.50159 7.97998L9.50139 7.67998ZM15.2709 7.67611L15.2711 7.97611L15.5709 7.97591V7.67611H15.2709ZM15.2709 5.70274H15.5709V5.4297L15.2991 5.40406L15.2709 5.70274ZM2.46839 2.51173L2.67941 2.29848L2.6785 2.29759L2.46839 2.51173ZM2.33362 1.64391L2.06884 1.50289L2.06844 1.50363L2.33362 1.64391ZM3.13052 1.25736L3.07771 1.55267L3.07821 1.55276L3.13052 1.25736ZM27.0544 2.24692L27.0535 1.94692L27.0531 1.94693L27.0544 2.24692ZM28.1008 2.24347L28.1018 2.54347L28.1019 2.54347L28.1008 2.24347ZM28.1011 2.24347L28.1 1.94347L28.1 1.94347L28.1011 2.24347ZM28.1014 2.24347L28.1005 1.94347L28.1004 1.94347L28.1014 2.24347ZM28.1017 2.24347L28.1026 2.54347L28.1028 2.54346L28.1017 2.24347ZM28.1018 2.24347L28.1007 1.94347L28.1006 1.94347L28.1018 2.24347ZM30.7497 2.23726L30.7498 1.93726H30.7497V2.23726ZM37.1872 2.23919L37.1871 2.53919H37.1872V2.23919ZM47.7106 2.04205L47.6988 1.74227L47.6962 1.7424L47.7106 2.04205ZM48.4684 2.57934L48.7566 2.4959V2.4959L48.4684 2.57934ZM48.1149 3.43172L48.2604 3.69409L48.2606 3.69398L48.1149 3.43172ZM46.2477 4.20869L46.1553 3.92328L45.9477 3.99049V4.20869H46.2477ZM45.2848 7.25864L45.4187 7.52712L45.4189 7.52701L45.2848 7.25864ZM43.4548 7.10401L43.6326 6.8624L43.6323 6.86217L43.4548 7.10401ZM41.0349 5.32781L41.2124 5.08597L41.1135 5.01337L40.992 5.03088L41.0349 5.32781ZM29.7499 6.15505L29.743 5.85513L29.4499 5.86185V6.15505H29.7499ZM29.7499 7.68193H29.4499V7.98204L29.75 7.98193L29.7499 7.68193ZM34.9979 7.68V7.38H34.9978L34.9979 7.68ZM43.9024 10.6487L44.0858 10.4114L44.0826 10.4089L43.9024 10.6487ZM44.1074 10.8072L44.2918 10.5705L44.2909 10.5699L44.1074 10.8072ZM48.7676 17.048L48.488 17.1568L48.4933 17.1703L48.4998 17.1833L48.7676 17.048ZM48.7735 17.0596L49.0504 16.9444L49.0462 16.9342L49.0412 16.9243L48.7735 17.0596ZM48.7871 17.0925L49.0698 16.9922L49.0672 16.9846L49.0641 16.9772L48.7871 17.0925ZM48.83 17.2048L48.5511 17.3153L48.5515 17.3163L48.83 17.2048ZM48.8301 17.205L49.1099 17.0967L49.1086 17.0936L48.8301 17.205ZM48.8301 17.2051L48.5503 17.3134L48.5516 17.3165L48.8301 17.2051ZM48.8302 17.2052L49.11 17.0969L49.1087 17.0938L48.8302 17.2052ZM48.8302 17.2053L48.5504 17.3136L48.5517 17.3167L48.8302 17.2053ZM48.8303 17.2054L49.1092 17.095L49.1088 17.094L48.8303 17.2054ZM48.8672 17.3012L48.5853 17.4041L48.5877 17.4101L48.8672 17.3012ZM49.166 18.0686V18.3686H49.6048L49.4456 17.9597L49.166 18.0686ZM49.1231 18.0686V17.7686H48.7181L48.8361 18.156L49.1231 18.0686ZM46.9319 16.586V16.886H47.4129L47.2013 16.454L46.9319 16.586ZM43.3792 12.1329L43.5681 11.8998L43.4855 11.8329H43.3792V12.1329ZM44.6113 5.93276L44.4783 5.66388L44.4783 5.66388L44.6113 5.93276ZM44.75 5.71049L44.45 5.71049V5.71049H44.75ZM44.3496 5.90957L44.5275 5.668L44.527 5.66761L44.3496 5.90957ZM43.0918 4.98762L43.0358 4.6929L42.358 4.82171L42.9145 5.22958L43.0918 4.98762ZM44.75 4.63006L45.05 4.63006L45.05 4.24818L44.679 4.33858L44.75 4.63006ZM26.0906 3.73613L26.0915 4.03613L26.0918 4.03613L26.0906 3.73613ZM26.0908 3.73613L26.0899 3.43613L26.0896 3.43613L26.0908 3.73613ZM22.758 3.7429L22.7309 3.44413L22.758 4.0429V3.7429ZM22.7585 3.74286L22.7856 4.04163L22.7585 3.44286V3.74286ZM9.33647 3.42395L9.35561 3.12457L9.28138 3.71885L9.33647 3.42395ZM41.7425 3.70811L41.7901 4.00431L41.739 3.40813L41.7425 3.70811ZM37.1897 3.72937L37.1894 4.02937H37.1897V3.72937ZM30.7502 3.72357L30.7505 3.42357H30.7502V3.72357ZM27.0608 3.73324L27.0617 4.03324L27.0621 4.03324L27.0608 3.73324ZM16.7715 5.83612L16.7951 5.53705L16.4715 5.51149V5.83612H16.7715ZM28.25 6.18015H28.55V5.87619L28.2461 5.88018L28.25 6.18015ZM28.25 7.67997V7.97997H28.55V7.67997H28.25ZM16.7715 7.67997H16.4715V7.97997H16.7715V7.67997ZM43.1856 26.9771L42.8894 27.0249L42.9301 27.2771H43.1856V26.9771ZM49.25 26.9771V27.2771H49.55V26.9771H49.25ZM49.25 26.4823H49.55V26.1823H49.25V26.4823ZM44.75 26.4823H44.45V26.7823H44.75V26.4823ZM44.75 24.9979V24.6979H44.45V24.9979H44.75ZM48.25 24.9979V25.2979H48.55V24.9979H48.25ZM47.5469 18.0708L47.8307 17.9736L47.7612 17.7708H47.5469V18.0708ZM41.1114 10.649V10.949L41.249 10.3824L41.1114 10.649ZM4.74992 16.5865H4.44992V16.8865H4.74992V16.5865ZM12.2849 16.5865H12.5849V16.2865H12.2849V16.5865ZM12.2849 18.0708V18.3708H12.5849V18.0708H12.2849ZM4.74992 18.0708V17.7708H4.44992V18.0708H4.74992ZM4.74992 24.9979H4.44992V25.2979H4.74992V24.9979ZM5.74992 24.9979H6.04992V24.6979H5.74992V24.9979ZM5.74992 26.4823V26.7823H6.04992V26.4823H5.74992ZM2.74992 26.4823V26.1823H2.44992V26.4823H2.74992ZM2.74992 26.9771H2.44992V27.2771H2.74992V26.9771ZM7.06437 26.9771V27.2771H7.31963L7.3605 27.0251L7.06437 26.9771ZM16.4355 26.9771L16.1393 27.0249L16.18 27.2771H16.4355V26.9771ZM33.8145 26.9771V27.2771H34.0697L34.1106 27.0251L33.8145 26.9771ZM50.05 25.0227V22.2762H49.45V25.0227H50.05ZM49.8332 25.3109L49.8336 25.3108L49.6664 24.7346L49.666 24.7347L49.8332 25.3109ZM51.0496 26.2347C51.0496 25.4913 50.5141 24.8722 49.8094 24.7288L49.6898 25.3168C50.1257 25.4055 50.4496 25.7875 50.4496 26.2347H51.0496ZM51.0496 27.2223V26.2347H50.4496V27.2223H51.0496ZM49.8094 28.7301C50.5141 28.5868 51.0496 27.9695 51.0496 27.2223H50.4496C50.4496 27.6734 50.1257 28.0535 49.6898 28.1421L49.8094 28.7301ZM50.0496 28.4612V28.4361H49.4496V28.4612H50.0496ZM43.1851 28.7612H49.7496V28.1612H43.1851V28.7612ZM38.4995 32.7196C41.011 32.7196 43.0945 30.8935 43.4812 28.5093L42.889 28.4132C42.549 30.5091 40.7146 32.1196 38.4995 32.1196V32.7196ZM33.5198 28.509C33.9044 30.8935 35.9881 32.7196 38.4995 32.7196V32.1196C36.2844 32.1196 34.4501 30.509 34.1121 28.4135L33.5198 28.509ZM16.4349 28.7612H33.8159V28.1612H16.4349V28.7612ZM11.7494 32.7196C14.2609 32.7196 16.3444 30.8935 16.7311 28.5093L16.1388 28.4132C15.7989 30.5091 13.9645 32.1196 11.7494 32.1196V32.7196ZM6.76767 28.509C7.15233 30.8917 9.23799 32.7196 11.7494 32.7196V32.1196C9.53419 32.1196 7.69801 30.5071 7.36 28.4134L6.76767 28.509ZM3.24939 28.7612H7.06384V28.1612H3.24939V28.7612ZM2.50211 28.7632L3.25016 28.7612L3.24861 28.1612L2.50056 28.1632L2.50211 28.7632ZM0.94939 27.2243C0.94939 28.0749 1.64692 28.7632 2.50134 28.7632V28.1632C1.97296 28.1632 1.54939 27.7382 1.54939 27.2243H0.94939ZM0.94939 26.2366V27.2243H1.54939V26.2366H0.94939ZM2.50134 24.6977C1.64948 24.6977 0.94939 25.3835 0.94939 26.2366H1.54939C1.54939 25.7213 1.9743 25.2977 2.50134 25.2977V24.6977ZM3.24939 24.6977H2.50134V25.2977H3.24939V24.6977ZM2.94939 13.8669V24.9977H3.54939V13.8669H2.94939ZM9.50139 7.37998C5.89143 7.37998 2.94939 10.2868 2.94939 13.8669H3.54939C3.54939 10.6241 6.21685 7.97998 9.50139 7.97998V7.37998ZM15.2707 7.37611L9.50119 7.37998L9.50159 7.97998L15.2711 7.97611L15.2707 7.37611ZM14.9709 5.70274V7.67611H15.5709V5.70274H14.9709ZM2.25737 2.72497C2.68842 3.15152 3.34535 3.52614 4.15769 3.85873C4.97484 4.19329 5.97196 4.49433 7.10349 4.76298C9.36682 5.30032 12.1923 5.71368 15.2427 6.00141L15.2991 5.40406C12.264 5.11778 9.46849 4.70778 7.24208 4.1792C6.12874 3.91488 5.1638 3.62232 4.38503 3.30347C3.60147 2.98266 3.02864 2.64408 2.67941 2.29849L2.25737 2.72497ZM2.06844 1.50363C1.85405 1.90891 1.93111 2.40485 2.25828 2.72586L2.6785 2.29759C2.54083 2.16251 2.50851 1.95488 2.59881 1.78419L2.06844 1.50363ZM3.18334 0.962041C2.73018 0.880997 2.28199 1.10268 2.06884 1.50289L2.59841 1.78493C2.68996 1.61304 2.88243 1.51774 3.07771 1.55267L3.18334 0.962041ZM22.7555 1.95659C15.8393 1.95659 8.12849 1.83782 3.18284 0.961952L3.07821 1.55276C8.08556 2.43955 15.8518 2.55659 22.7555 2.55659V1.95659ZM27.0531 1.94693C25.6667 1.95272 24.2238 1.95659 22.7555 1.95659V2.55659C24.2248 2.55659 25.6686 2.55272 27.0556 2.54692L27.0531 1.94693ZM28.0998 1.94347C27.7549 1.94466 27.406 1.94587 27.0535 1.94692L27.0553 2.54692C27.408 2.54586 27.757 2.54466 28.1018 2.54347L28.0998 1.94347ZM28.0998 1.94347L28.0997 1.94347L28.1019 2.54347L28.102 2.54347L28.0998 1.94347ZM28.0999 1.94347L28.0998 1.94347L28.102 2.54347L28.1021 2.54347L28.0999 1.94347ZM28.1 1.94347L28.0999 1.94347L28.1021 2.54347L28.1022 2.54347L28.1 1.94347ZM28.1004 1.94347L28.1 1.94347L28.1022 2.54347L28.1025 2.54347L28.1004 1.94347ZM28.1007 1.94347L28.1005 1.94347L28.1024 2.54347L28.1026 2.54347L28.1007 1.94347ZM28.1006 1.94347L28.1005 1.94347L28.1028 2.54346L28.1029 2.54346L28.1006 1.94347ZM30.7497 1.93726C29.9 1.93726 29.0143 1.94032 28.1007 1.94347L28.1028 2.54347C29.0166 2.54031 29.9012 2.53726 30.7497 2.53726V1.93726ZM37.1873 1.93919L30.7498 1.93726L30.7496 2.53726L37.1871 2.53919L37.1873 1.93919ZM37.1891 1.93919H37.1872V2.53919H37.1891V1.93919ZM47.6962 1.7424C44.2229 1.9102 41.545 1.93919 37.1891 1.93919V2.53919C41.5482 2.53919 44.2374 2.5102 47.7251 2.3417L47.6962 1.7424ZM48.7566 2.4959C48.6209 2.0274 48.1746 1.72352 47.6988 1.74228L47.7225 2.34181C47.9341 2.33346 48.1245 2.47027 48.1803 2.66278L48.7566 2.4959ZM48.2606 3.69398C48.6847 3.45841 48.8915 2.96178 48.7566 2.4959L48.1803 2.66278C48.2368 2.85795 48.1506 3.06873 47.9692 3.16946L48.2606 3.69398ZM46.3401 4.4941C47.0923 4.25059 47.7365 3.9846 48.2604 3.69409L47.9694 3.16935C47.4895 3.43548 46.8837 3.68746 46.1553 3.92328L46.3401 4.4941ZM46.5477 5.71048V4.20869H45.9477V5.71048H46.5477ZM45.4189 7.52701C46.1229 7.17525 46.5477 6.49416 46.5477 5.71048H45.9477C45.9477 6.26432 45.6537 6.73899 45.1507 6.99027L45.4189 7.52701ZM44.4919 7.74998C44.8077 7.74998 45.1229 7.67459 45.4187 7.52712L45.151 6.99016C44.935 7.0978 44.7112 7.14998 44.4919 7.14998V7.74998ZM43.2769 7.34563C43.6404 7.6131 44.0639 7.74998 44.4919 7.74998V7.14998C44.1934 7.14998 43.8942 7.05492 43.6326 6.8624L43.2769 7.34563ZM40.8573 5.56965L43.2772 7.34586L43.6323 6.86217L41.2124 5.08597L40.8573 5.56965ZM29.7567 6.45497C34.1512 6.35429 37.9802 6.07152 41.0777 5.62474L40.992 5.03088C37.9255 5.4732 34.1219 5.75481 29.743 5.85513L29.7567 6.45497ZM30.0499 7.68193V6.15505H29.4499V7.68193H30.0499ZM34.9978 7.38L29.7498 7.38193L29.75 7.98193L34.998 7.98L34.9978 7.38ZM44.0826 10.4089C41.556 8.51002 38.4092 7.38 34.9979 7.38V7.98C38.2746 7.98 41.2957 9.06496 43.7221 10.8886L44.0826 10.4089ZM44.2909 10.5699L44.0858 10.4114L43.7189 10.8861L43.924 11.0446L44.2909 10.5699ZM49.0472 16.9393C48.0642 14.4119 46.4058 12.2168 44.2918 10.5705L43.9231 11.0439C45.9536 12.6251 47.5451 14.7324 48.488 17.1568L49.0472 16.9393ZM49.0412 16.9243L49.0354 16.9128L48.4998 17.1833L48.5057 17.1949L49.0412 16.9243ZM49.0641 16.9772L49.0504 16.9444L48.4965 17.1749L48.5101 17.2077L49.0641 16.9772ZM49.109 17.0944C49.094 17.0567 49.0813 17.0245 49.0698 16.9922L48.5044 17.1928C48.5201 17.237 48.5368 17.2791 48.5511 17.3153L49.109 17.0944ZM49.1086 17.0936L49.1086 17.0934L48.5515 17.3163L48.5515 17.3164L49.1086 17.0936ZM49.1099 17.0968L49.1099 17.0967L48.5503 17.3133L48.5504 17.3134L49.1099 17.0968ZM49.1087 17.0938L49.1087 17.0937L48.5516 17.3165L48.5516 17.3166L49.1087 17.0938ZM49.11 17.097L49.11 17.0969L48.5504 17.3135L48.5504 17.3136L49.11 17.097ZM49.1088 17.094L49.1088 17.0939L48.5517 17.3167L48.5517 17.3169L49.1088 17.094ZM49.149 17.1984C49.1357 17.1618 49.1216 17.1263 49.1092 17.095L48.5513 17.3159C48.5642 17.3484 48.5753 17.3764 48.5854 17.4041L49.149 17.1984ZM49.4456 17.9597L49.1468 17.1924L48.5877 17.4101L48.8865 18.1774L49.4456 17.9597ZM49.1231 18.3686H49.166V17.7686H49.1231V18.3686ZM50.05 22.2762C50.05 20.7847 49.8247 19.3424 49.41 17.9811L48.8361 18.156C49.2339 19.462 49.45 20.8454 49.45 22.2762H50.05ZM46.9317 16.286H36.0002V16.886H46.9317V16.286ZM46.9319 16.286H46.9317V16.886H46.9319V16.286ZM43.1902 12.3659C44.6585 13.5563 45.8419 15.043 46.6625 16.718L47.2013 16.454C46.3422 14.7003 45.1037 13.1448 43.5681 11.8998L43.1902 12.3659ZM36.0002 12.4329H43.3792V11.8329H36.0002V12.4329ZM36.0502 12.3803C36.0502 12.4013 36.0413 12.4142 36.0356 12.4198C36.03 12.4254 36.0184 12.4329 36.0002 12.4329V11.8329C35.7027 11.8329 35.4502 12.0783 35.4502 12.3803H36.0502ZM36.0502 16.3386V12.3803H35.4502V16.3386H36.0502ZM36.0002 16.286C36.0184 16.286 36.03 16.2935 36.0356 16.2991C36.0413 16.3047 36.0502 16.3176 36.0502 16.3386H35.4502C35.4502 16.6406 35.7027 16.886 36.0002 16.886V16.286ZM44.7444 6.20165C44.8315 6.15855 44.9129 6.09395 44.9707 6.00088C45.0285 5.90781 45.05 5.80656 45.05 5.71049H44.45C44.45 5.71422 44.4496 5.71254 44.451 5.70701C44.4525 5.70114 44.4556 5.69306 44.461 5.68441C44.4663 5.67576 44.4722 5.66954 44.4766 5.66573C44.4807 5.66216 44.4821 5.66199 44.4783 5.66388L44.7444 6.20165ZM44.1717 6.15113C44.248 6.20732 44.3411 6.25081 44.4501 6.26056C44.5592 6.27032 44.6588 6.24399 44.7444 6.20164L44.4783 5.66388C44.4737 5.66614 44.4743 5.66527 44.4794 5.66417C44.4849 5.66297 44.4934 5.66203 44.5036 5.66295C44.5137 5.66386 44.5218 5.66627 44.5269 5.66835C44.5315 5.67028 44.5318 5.67113 44.5275 5.668L44.1717 6.15113ZM42.9145 5.22958L44.1723 6.15153L44.527 5.66761L43.2692 4.74566L42.9145 5.22958ZM44.679 4.33858C44.1687 4.46294 43.6209 4.5817 43.0358 4.6929L43.1478 5.28235C43.7424 5.16935 44.3002 5.04844 44.821 4.92153L44.679 4.33858ZM45.05 5.71049L45.05 4.63006L44.45 4.63005L44.45 5.71049L45.05 5.71049ZM26.0918 4.03613L26.092 4.03613L26.0896 3.43613L26.0895 3.43613L26.0918 4.03613ZM22.758 4.0429C23.8897 4.0429 25.0052 4.03947 26.0915 4.03613L26.0897 3.43613C25.0032 3.43947 23.8887 3.4429 22.758 3.4429V4.0429ZM22.7313 3.44409L22.7309 3.44413L22.7852 4.04167L22.7856 4.04163L22.7313 3.44409ZM9.31732 3.72334C13.5287 3.99265 18.3181 4.04286 22.7585 4.04286V3.44286C18.3198 3.44286 13.5466 3.39257 9.35561 3.12457L9.31732 3.72334ZM26.0005 4.4112C19.1881 4.4112 13.4041 3.87868 9.39156 3.12906L9.28138 3.71885C13.3388 4.47686 19.1609 5.0112 26.0005 5.0112V4.4112ZM41.6949 3.41191C37.7337 4.04826 32.2643 4.4112 26.0005 4.4112V5.0112C32.2826 5.0112 37.7864 4.64749 41.7901 4.00431L41.6949 3.41191ZM37.1917 4.02937C38.9188 4.02937 40.3869 4.02357 41.7459 4.00809L41.739 3.40813C40.3832 3.42358 38.9176 3.42937 37.1917 3.42937V4.02937ZM37.1897 4.02937H37.1917V3.42937H37.1897V4.02937ZM30.7499 4.02357L37.1894 4.02937L37.19 3.42937L30.7505 3.42357L30.7499 4.02357ZM27.0621 4.03324C28.347 4.02744 29.5829 4.02357 30.7502 4.02357V3.42357C29.5816 3.42357 28.3448 3.42744 27.0594 3.43324L27.0621 4.03324ZM26.0917 4.03613L27.0617 4.03324L27.0599 3.43324L26.0899 3.43613L26.0917 4.03613ZM26 5.89561C22.9646 5.89561 19.7968 5.77414 16.7951 5.53705L16.7479 6.13519C19.7658 6.37356 22.9494 6.49561 26 6.49561V5.89561ZM28.2461 5.88018C27.5108 5.88983 26.7622 5.89561 26 5.89561V6.49561C26.7652 6.49561 27.5165 6.4898 28.254 6.48013L28.2461 5.88018ZM28.55 7.67997V6.18015H27.95V7.67997H28.55ZM16.7715 7.97997H28.25V7.37996H16.7715V7.97997ZM16.4715 5.83612V7.67997H17.0715V5.83612H16.4715ZM11.75 30.6354C10.1198 30.6354 8.80002 29.3249 8.80002 27.7193H8.20002C8.20002 29.6622 9.79435 31.2354 11.75 31.2354V30.6354ZM14.7 27.7193C14.7 29.3249 13.3802 30.6354 11.75 30.6354V31.2354C13.7057 31.2354 15.3 29.6622 15.3 27.7193H14.7ZM11.75 24.8031C13.3802 24.8031 14.7 26.1136 14.7 27.7193H15.3C15.3 25.7764 13.7057 24.2031 11.75 24.2031V24.8031ZM8.80002 27.7193C8.80002 26.1136 10.1198 24.8031 11.75 24.8031V24.2031C9.79435 24.2031 8.20002 25.7764 8.20002 27.7193H8.80002ZM34.95 27.7193C34.95 29.6622 36.5443 31.2354 38.5 31.2354V30.6354C36.8698 30.6354 35.55 29.3249 35.55 27.7193H34.95ZM38.5 24.2031C36.5443 24.2031 34.95 25.7764 34.95 27.7193H35.55C35.55 26.1136 36.8698 24.8031 38.5 24.8031V24.2031ZM42.05 27.7193C42.05 25.7764 40.4557 24.2031 38.5 24.2031V24.8031C40.1302 24.8031 41.45 26.1136 41.45 27.7193H42.05ZM38.5 31.2354C40.4557 31.2354 42.05 29.6622 42.05 27.7193H41.45C41.45 29.3249 40.1302 30.6354 38.5 30.6354V31.2354ZM43.4817 26.9293C43.0971 24.5446 41.0113 22.7188 38.5 22.7188V23.3187C40.7153 23.3187 42.5514 24.9294 42.8894 27.0249L43.4817 26.9293ZM49.25 26.6771H43.1856V27.2771H49.25V26.6771ZM48.95 26.4823V26.9771H49.55V26.4823H48.95ZM44.75 26.7823H49.25V26.1823H44.75V26.7823ZM44.45 24.9979V26.4823H45.05V24.9979H44.45ZM48.25 24.6979H44.75V25.2979H48.25V24.6979ZM47.95 22.2785V24.9979H48.55V22.2785H47.95ZM47.2631 18.1681C47.7058 19.4599 47.95 20.8399 47.95 22.2785H48.55C48.55 20.7714 48.2941 19.3258 47.8307 17.9736L47.2631 18.1681ZM35.9999 18.3708H47.5469V17.7708H35.9999V18.3708ZM33.9499 16.3391C33.9499 17.4625 34.8723 18.3708 35.9999 18.3708V17.7708C35.1977 17.7708 34.5499 17.1252 34.5499 16.3391H33.9499ZM33.9499 12.3807V16.3391H34.5499V12.3807H33.9499ZM35.9999 10.349C34.8723 10.349 33.9499 11.2573 33.9499 12.3807H34.5499C34.5499 11.5946 35.1977 10.949 35.9999 10.949V10.349ZM41.1114 10.349H35.9999V10.949H41.1114V10.349ZM34.9979 9.46458C37.1515 9.46458 39.1846 9.99162 40.9737 10.9155L41.249 10.3824C39.3776 9.41599 37.2504 8.86458 34.9979 8.86458V9.46458ZM9.50187 9.46458H34.9979V8.86458H9.50187V9.46458ZM5.04992 13.867C5.04992 11.4437 7.04356 9.46458 9.50187 9.46458V8.86458C6.71797 8.86458 4.44992 11.1066 4.44992 13.867H5.04992ZM5.04992 16.5865V13.867H4.44992V16.5865H5.04992ZM12.2849 16.2865H4.74992V16.8865H12.2849V16.2865ZM12.5849 18.0708V16.5865H11.9849V18.0708H12.5849ZM4.74992 18.3708H12.2849V17.7708H4.74992V18.3708ZM5.04992 24.9979V18.0708H4.44992V24.9979H5.04992ZM5.74992 24.6979H4.74992V25.2979H5.74992V24.6979ZM6.04992 26.4823V24.9979H5.44992V26.4823H6.04992ZM2.74992 26.7823H5.74992V26.1823H2.74992V26.7823ZM3.04992 26.9771V26.4823H2.44992V26.9771H3.04992ZM7.06437 26.6771H2.74992V27.2771H7.06437V26.6771ZM11.7499 22.7188C9.23842 22.7188 7.15492 24.5448 6.76823 26.9291L7.3605 27.0251C7.70041 24.9293 9.53481 23.3187 11.7499 23.3187V22.7188ZM16.7316 26.9293C16.347 24.5446 14.2612 22.7188 11.7499 22.7188V23.3187C13.9652 23.3187 15.8013 24.9294 16.1393 27.0249L16.7316 26.9293ZM33.8145 26.6771H16.4355V27.2771H33.8145V26.6771ZM38.5 22.7188C35.9885 22.7188 33.905 24.5448 33.5183 26.9291L34.1106 27.0251C34.4505 24.9293 36.2849 23.3187 38.5 23.3187V22.7188Z" fill="#222532"/>
</svg>
